<svg width="548" height="485" fill="none" xmlns="http://www.w3.org/2000/svg"><path fill-rule="evenodd" clip-rule="evenodd" d="M332.124 2.628c64.418-46.16 146.855-41.746 220.252-41.122 66.312.564 127.925 14.778 180.135 44.528C783.12 34.87 815.73 79.996 844.793 128.125c32.154 53.246 82.499 105.352 65.509 172.327-16.975 66.919-100.437 107.155-150.699 163.496-51.879 58.155-77.363 141.829-149.464 172.974-72.296 31.229-145.799 2.999-212.317-16.698-60.286-17.851-106.76-52.78-151.678-91.085-48.773-41.593-117.2-75.525-121.227-141.644-4.024-66.061 65.855-126.889 100.904-191.99 35.452-65.848 42.117-146.882 106.303-192.877z" fill="#F7BB63"/><g filter="url(#filter0_d_226_36)" fill="#fff"><path d="M426.355 252.542a5.537 5.537 0 01-5.532 5.541 5.537 5.537 0 01-5.533-5.541 5.537 5.537 0 015.533-5.542 5.537 5.537 0 015.532 5.542zm20.548 0a5.537 5.537 0 01-5.532 5.541 5.537 5.537 0 01-5.532-5.541 5.537 5.537 0 015.532-5.542 5.537 5.537 0 015.532 5.542zm20.549 0a5.537 5.537 0 01-5.533 5.541 5.537 5.537 0 01-5.532-5.541 5.537 5.537 0 015.532-5.542 5.537 5.537 0 015.533 5.542zm20.548 0a5.537 5.537 0 01-5.532 5.541 5.537 5.537 0 01-5.533-5.541 5.537 5.537 0 015.533-5.542 5.537 5.537 0 015.532 5.542zm-82.194 0a5.536 5.536 0 01-5.532 5.541 5.537 5.537 0 01-5.532-5.541 5.537 5.537 0 015.532-5.542 5.536 5.536 0 015.532 5.542zm20.549 20.583a5.537 5.537 0 01-5.532 5.542 5.537 5.537 0 01-5.533-5.542 5.537 5.537 0 015.533-5.542 5.537 5.537 0 015.532 5.542zm20.548 0a5.537 5.537 0 01-5.532 5.542 5.537 5.537 0 01-5.532-5.542 5.537 5.537 0 015.532-5.542 5.537 5.537 0 015.532 5.542zm20.549 0a5.537 5.537 0 01-5.533 5.542 5.537 5.537 0 01-5.532-5.542 5.537 5.537 0 015.532-5.542 5.537 5.537 0 015.533 5.542zm20.548 0a5.537 5.537 0 01-5.532 5.542 5.537 5.537 0 01-5.533-5.542 5.537 5.537 0 015.533-5.542 5.537 5.537 0 015.532 5.542zm-82.194 0a5.536 5.536 0 01-5.532 5.542 5.537 5.537 0 01-5.532-5.542 5.537 5.537 0 015.532-5.542 5.536 5.536 0 015.532 5.542zm20.549 20.583a5.537 5.537 0 01-5.532 5.542 5.537 5.537 0 01-5.533-5.542 5.537 5.537 0 015.533-5.541 5.537 5.537 0 015.532 5.541zm20.548 0a5.537 5.537 0 01-5.532 5.542 5.537 5.537 0 01-5.532-5.542 5.537 5.537 0 015.532-5.541 5.537 5.537 0 015.532 5.541zm20.549 0a5.537 5.537 0 01-5.533 5.542 5.537 5.537 0 01-5.532-5.542 5.537 5.537 0 015.532-5.541 5.537 5.537 0 015.533 5.541zm20.548 0a5.537 5.537 0 01-5.532 5.542 5.537 5.537 0 01-5.533-5.542 5.537 5.537 0 015.533-5.541 5.537 5.537 0 015.532 5.541zm-82.194 0a5.536 5.536 0 01-5.532 5.542 5.537 5.537 0 01-5.532-5.542 5.537 5.537 0 015.532-5.541 5.536 5.536 0 015.532 5.541zm20.549 20.584a5.537 5.537 0 01-5.532 5.541 5.537 5.537 0 01-5.533-5.541 5.537 5.537 0 015.533-5.542 5.537 5.537 0 015.532 5.542zm20.548 0a5.537 5.537 0 01-5.532 5.541 5.537 5.537 0 01-5.532-5.541 5.537 5.537 0 015.532-5.542 5.537 5.537 0 015.532 5.542zm20.549 0a5.537 5.537 0 01-5.533 5.541 5.537 5.537 0 01-5.532-5.541 5.537 5.537 0 015.532-5.542 5.537 5.537 0 015.533 5.542zm20.548 0a5.537 5.537 0 01-5.532 5.541 5.537 5.537 0 01-5.533-5.541 5.537 5.537 0 015.533-5.542 5.537 5.537 0 015.532 5.542zm-82.194 0a5.536 5.536 0 01-5.532 5.541 5.537 5.537 0 01-5.532-5.541 5.537 5.537 0 015.532-5.542 5.536 5.536 0 015.532 5.542zm20.549 20.583a5.537 5.537 0 01-5.532 5.542 5.537 5.537 0 01-5.533-5.542 5.537 5.537 0 015.533-5.542 5.537 5.537 0 015.532 5.542zm20.548 0a5.537 5.537 0 01-5.532 5.542 5.537 5.537 0 01-5.532-5.542 5.537 5.537 0 015.532-5.542 5.537 5.537 0 015.532 5.542zm20.549 0a5.537 5.537 0 01-5.533 5.542 5.537 5.537 0 01-5.532-5.542 5.537 5.537 0 015.532-5.542 5.537 5.537 0 015.533 5.542zm20.548 0a5.537 5.537 0 01-5.532 5.542 5.537 5.537 0 01-5.533-5.542 5.537 5.537 0 015.533-5.542 5.537 5.537 0 015.532 5.542zm-82.194 0a5.536 5.536 0 01-5.532 5.542 5.537 5.537 0 01-5.532-5.542 5.537 5.537 0 015.532-5.542 5.536 5.536 0 015.532 5.542zm20.549 20.583a5.537 5.537 0 01-5.532 5.542 5.537 5.537 0 01-5.533-5.542 5.537 5.537 0 015.533-5.541 5.537 5.537 0 015.532 5.541zm20.548 0a5.537 5.537 0 01-5.532 5.542 5.537 5.537 0 01-5.532-5.542 5.537 5.537 0 015.532-5.541 5.537 5.537 0 015.532 5.541zm20.549 0a5.537 5.537 0 01-5.533 5.542 5.537 5.537 0 01-5.532-5.542 5.537 5.537 0 015.532-5.541 5.537 5.537 0 015.533 5.541zm20.548 0a5.537 5.537 0 01-5.532 5.542 5.537 5.537 0 01-5.533-5.542 5.537 5.537 0 015.533-5.541 5.537 5.537 0 015.532 5.541zm-82.194 0a5.536 5.536 0 01-5.532 5.542 5.537 5.537 0 01-5.532-5.542 5.537 5.537 0 015.532-5.541 5.536 5.536 0 015.532 5.541zm-82.193-102.916a5.537 5.537 0 01-5.532 5.541 5.537 5.537 0 01-5.533-5.541 5.537 5.537 0 015.533-5.542 5.537 5.537 0 015.532 5.542zm20.548 0a5.537 5.537 0 01-5.532 5.541 5.537 5.537 0 01-5.532-5.541 5.537 5.537 0 015.532-5.542 5.537 5.537 0 015.532 5.542zm20.549 0a5.537 5.537 0 01-5.533 5.541 5.537 5.537 0 01-5.532-5.541 5.537 5.537 0 015.532-5.542 5.537 5.537 0 015.533 5.542zm20.548 0a5.537 5.537 0 01-5.532 5.541 5.536 5.536 0 01-5.532-5.541 5.536 5.536 0 015.532-5.542 5.537 5.537 0 015.532 5.542zm-82.193 0a5.537 5.537 0 01-5.533 5.541 5.537 5.537 0 01-5.532-5.541 5.537 5.537 0 015.532-5.542 5.537 5.537 0 015.533 5.542zm20.548 20.583a5.537 5.537 0 01-5.532 5.542 5.537 5.537 0 01-5.533-5.542 5.537 5.537 0 015.533-5.542 5.537 5.537 0 015.532 5.542zm20.548 0a5.537 5.537 0 01-5.532 5.542 5.537 5.537 0 01-5.532-5.542 5.537 5.537 0 015.532-5.542 5.537 5.537 0 015.532 5.542zm20.549 0a5.537 5.537 0 01-5.533 5.542 5.537 5.537 0 01-5.532-5.542 5.537 5.537 0 015.532-5.542 5.537 5.537 0 015.533 5.542zm20.548 0a5.537 5.537 0 01-5.532 5.542 5.536 5.536 0 01-5.532-5.542 5.536 5.536 0 015.532-5.542 5.537 5.537 0 015.532 5.542zm-82.193 0a5.537 5.537 0 01-5.533 5.542 5.537 5.537 0 01-5.532-5.542 5.537 5.537 0 015.532-5.542 5.537 5.537 0 015.533 5.542zm20.548 20.583a5.537 5.537 0 01-5.532 5.542 5.537 5.537 0 01-5.533-5.542 5.537 5.537 0 015.533-5.541 5.537 5.537 0 015.532 5.541zm20.548 0a5.537 5.537 0 01-5.532 5.542 5.537 5.537 0 01-5.532-5.542 5.537 5.537 0 015.532-5.541 5.537 5.537 0 015.532 5.541zm20.549 0a5.537 5.537 0 01-5.533 5.542 5.537 5.537 0 01-5.532-5.542 5.537 5.537 0 015.532-5.541 5.537 5.537 0 015.533 5.541zm20.548 0a5.537 5.537 0 01-5.532 5.542 5.536 5.536 0 01-5.532-5.542 5.536 5.536 0 015.532-5.541 5.537 5.537 0 015.532 5.541zm-82.193 0a5.537 5.537 0 01-5.533 5.542 5.537 5.537 0 01-5.532-5.542 5.537 5.537 0 015.532-5.541 5.537 5.537 0 015.533 5.541zm20.548 20.584a5.537 5.537 0 01-5.532 5.541 5.537 5.537 0 01-5.533-5.541 5.537 5.537 0 015.533-5.542 5.537 5.537 0 015.532 5.542zm20.548 0a5.537 5.537 0 01-5.532 5.541 5.537 5.537 0 01-5.532-5.541 5.537 5.537 0 015.532-5.542 5.537 5.537 0 015.532 5.542zm20.549 0a5.537 5.537 0 01-5.533 5.541 5.537 5.537 0 01-5.532-5.541 5.537 5.537 0 015.532-5.542 5.537 5.537 0 015.533 5.542zm20.548 0a5.537 5.537 0 01-5.532 5.541 5.536 5.536 0 01-5.532-5.541 5.536 5.536 0 015.532-5.542 5.537 5.537 0 015.532 5.542zm-82.193 0a5.537 5.537 0 01-5.533 5.541 5.537 5.537 0 01-5.532-5.541 5.537 5.537 0 015.532-5.542 5.537 5.537 0 015.533 5.542zm20.548 20.583a5.537 5.537 0 01-5.532 5.542 5.537 5.537 0 01-5.533-5.542 5.537 5.537 0 015.533-5.542 5.537 5.537 0 015.532 5.542zm20.548 0a5.537 5.537 0 01-5.532 5.542 5.537 5.537 0 01-5.532-5.542 5.537 5.537 0 015.532-5.542 5.537 5.537 0 015.532 5.542zm20.549 0a5.537 5.537 0 01-5.533 5.542 5.537 5.537 0 01-5.532-5.542 5.537 5.537 0 015.532-5.542 5.537 5.537 0 015.533 5.542zm20.548 0a5.537 5.537 0 01-5.532 5.542 5.536 5.536 0 01-5.532-5.542 5.536 5.536 0 015.532-5.542 5.537 5.537 0 015.532 5.542zm-82.193 0a5.537 5.537 0 01-5.533 5.542 5.537 5.537 0 01-5.532-5.542 5.537 5.537 0 015.532-5.542 5.537 5.537 0 015.533 5.542zm20.548 20.583a5.537 5.537 0 01-5.532 5.542 5.537 5.537 0 01-5.533-5.542 5.537 5.537 0 015.533-5.541 5.537 5.537 0 015.532 5.541zm20.548 0a5.537 5.537 0 01-5.532 5.542 5.537 5.537 0 01-5.532-5.542 5.537 5.537 0 015.532-5.541 5.537 5.537 0 015.532 5.541zm20.549 0a5.537 5.537 0 01-5.533 5.542 5.537 5.537 0 01-5.532-5.542 5.537 5.537 0 015.532-5.541 5.537 5.537 0 015.533 5.541zm20.548 0a5.537 5.537 0 01-5.532 5.542 5.536 5.536 0 01-5.532-5.542 5.536 5.536 0 015.532-5.541 5.537 5.537 0 015.532 5.541zm-82.193 0a5.537 5.537 0 01-5.533 5.542 5.537 5.537 0 01-5.532-5.542 5.537 5.537 0 015.532-5.541 5.537 5.537 0 015.533 5.541z"/></g><defs><filter id="filter0_d_226_36" x="292" y="247" width="201" height="119" filterUnits="userSpaceOnUse" color-interpolation-filters="sRGB"><feFlood flood-opacity="0" result="BackgroundImageFix"/><feColorMatrix in="SourceAlpha" values="0 0 0 0 0 0 0 0 0 0 0 0 0 0 0 0 0 0 127 0" result="hardAlpha"/><feOffset dx="5" dy="5"/><feComposite in2="hardAlpha" operator="out"/><feColorMatrix values="0 0 0 0 0 0 0 0 0 0 0 0 0 0 0 0 0 0 0.1 0"/><feBlend in2="BackgroundImageFix" result="effect1_dropShadow_226_36"/><feBlend in="SourceGraphic" in2="effect1_dropShadow_226_36" result="shape"/></filter></defs></svg>